<svg version="1.1" id="Layer_1" xmlns="http://www.w3.org/2000/svg" xmlns:xlink="http://www.w3.org/1999/xlink" x="0px" y="0px"
	 width="100%" viewBox="0 0 1024 1536" enable-background="new 0 0 1024 1536" xml:space="preserve">
<path fill="#293F72" opacity="1.000000" stroke="none" 
	d="
M456.000000,1537.000000 
	C304.000000,1537.000000 152.500000,1537.000000 1.000000,1537.000000 
	C1.000000,1025.000000 1.000000,513.000000 1.000000,1.000000 
	C342.333344,1.000000 683.666687,1.000000 1025.000000,1.000000 
	C1025.000000,513.000000 1025.000000,1025.000000 1025.000000,1537.000000 
	C835.500000,1537.000000 646.000000,1537.000000 456.000000,1537.000000 
M516.390198,720.401611 
	C516.596741,719.439514 516.981445,718.477844 516.983398,717.515320 
	C517.018311,700.040039 517.034851,682.564575 516.953430,665.089600 
	C516.946960,663.698181 516.194946,662.310120 515.048157,660.645935 
	C510.275146,660.645935 505.502106,660.645935 500.097931,660.645935 
	C500.097931,668.907715 500.097931,676.943481 500.097931,684.773071 
	C489.224274,684.773071 478.992249,684.773071 468.292236,684.773071 
	C468.292236,676.463013 468.292236,668.536072 468.292236,660.524536 
	C463.060486,660.524536 458.309509,660.524536 453.321869,660.524536 
	C453.321869,680.830627 453.321869,700.865845 453.321869,721.238647 
	C458.291687,721.238647 463.024994,721.238647 468.364105,721.238647 
	C468.364105,712.842102 468.364105,704.608826 468.364105,696.143799 
	C479.200104,696.143799 489.434784,696.143799 500.139099,696.143799 
	C500.139099,704.564636 500.139099,712.791138 500.139099,721.044739 
	C505.686798,721.044739 510.766296,721.044739 516.390198,720.401611 
M389.471710,660.773254 
	C389.471710,680.842468 389.471710,700.911621 389.471710,721.236084 
	C407.524780,721.236084 425.234100,721.236084 442.996216,721.236084 
	C442.996216,717.404785 442.996216,713.978638 442.996216,710.018372 
	C430.090973,710.018372 417.525726,710.018372 405.130432,710.018372 
	C405.130432,704.889099 405.130432,700.303589 405.130432,695.523682 
	C416.594910,695.523682 427.693695,695.523682 438.987366,695.523682 
	C438.987366,692.014160 438.987366,688.755859 438.987366,684.874268 
	C427.527832,684.874268 416.315277,684.874268 405.157043,684.874268 
	C405.157043,680.174438 405.157043,676.107117 405.157043,671.534668 
	C417.914215,671.534668 430.302063,671.534668 442.650299,671.534668 
	C442.650299,667.591736 442.650299,664.165466 442.650299,660.062378 
	C425.582581,660.062378 408.799377,660.062378 391.664948,659.697266 
	C391.100128,659.837891 390.535339,659.978455 389.471710,660.773254 
M298.062103,660.293274 
	C288.191803,660.209290 278.321472,660.125366 268.733551,659.218750 
	C268.733551,656.669739 268.733551,654.120667 268.733551,650.388733 
	C264.587982,653.902710 259.107025,654.086670 259.424988,660.282410 
	C256.516571,659.914612 253.608154,659.546814 250.029221,659.410034 
	C249.649033,659.688599 249.268845,659.967102 248.598923,660.980286 
	C248.598923,681.026245 248.598923,701.072205 248.598923,721.284424 
	C267.015961,721.284424 284.898956,721.284424 302.752228,721.284424 
	C302.752228,717.470703 302.752228,714.057190 302.752228,710.123657 
	C289.691833,710.123657 276.953613,710.123657 264.080048,710.123657 
	C264.080048,705.043640 264.080048,700.497192 264.080048,695.768555 
	C275.877838,695.768555 287.330078,695.768555 299.004211,695.768555 
	C299.004211,692.206726 299.004211,688.834045 299.004211,684.981445 
	C287.176971,684.981445 275.741211,684.981445 264.155518,684.981445 
	C264.155518,680.289368 264.155518,676.089722 264.155518,671.619263 
	C277.014648,671.619263 289.439026,671.619263 302.252502,671.619263 
	C302.252502,667.708496 302.252502,664.075867 301.791077,659.942078 
	C300.853363,659.992004 299.915649,660.041870 298.062103,660.293274 
M587.064087,660.393188 
	C580.727112,660.326477 574.390076,660.259827 567.437378,659.644409 
	C563.946167,659.810852 560.455017,659.977356 556.170715,660.386292 
	C554.800659,660.327759 553.430603,660.269165 551.429382,659.656433 
	C547.313293,660.016174 543.197205,660.375977 538.996765,661.477783 
	C539.154297,674.351074 538.550293,687.141602 534.079407,699.396179 
	C532.002014,705.090332 529.576111,710.634949 522.623291,711.357544 
	C522.623291,719.069885 522.623291,726.466431 522.623291,733.872192 
	C527.297546,733.872192 531.587402,733.872192 536.390625,733.872192 
	C536.390625,729.768433 536.390625,725.859863 536.390625,721.953796 
	C552.158752,721.953796 567.408875,721.953796 583.008545,721.953796 
	C583.008545,726.112915 583.008545,729.898621 583.008545,733.668091 
	C587.628723,733.668091 591.890442,733.668091 596.207520,733.668091 
	C596.207520,725.827209 596.207520,718.279663 596.207520,710.664917 
	C593.933960,710.432983 592.136658,710.249634 589.918396,710.023315 
	C589.918396,693.532288 589.918396,677.083679 589.667419,660.149597 
	C589.100769,660.146973 588.534180,660.144287 587.064087,660.393188 
M373.900391,623.819458 
	C366.342865,623.743896 358.785309,623.668335 350.647491,622.960571 
	C348.029297,623.166199 345.411102,623.371826 341.902893,623.781433 
	C335.346832,623.733276 328.790741,623.685120 321.628723,622.971069 
	C315.313751,622.648621 309.000946,622.226379 302.681946,622.086792 
	C301.397491,622.058411 300.089508,623.094849 298.094482,623.828735 
	C297.140076,623.760376 296.185699,623.692078 294.667450,622.984436 
	C292.375549,623.207458 290.083618,623.430481 287.105652,623.846008 
	C278.814178,623.771240 270.522675,623.696472 261.622803,622.960083 
	C253.507431,622.762878 245.392410,622.543335 237.275879,622.423828 
	C236.787491,622.416687 236.287384,623.207825 234.899933,623.817139 
	C227.009781,623.745789 219.119644,623.674438 210.617966,622.946411 
	C205.624039,622.629883 200.631607,622.129700 195.635437,622.089050 
	C193.690704,622.073242 191.737564,623.093323 188.936188,623.830261 
	C186.034241,623.758057 183.132278,623.685852 179.684387,622.994812 
	C177.835373,623.222656 175.986359,623.450562 173.425217,623.895142 
	C156.290146,626.835022 145.358932,636.434814 140.902252,654.335632 
	C140.600082,655.931519 140.036179,657.527100 140.034149,659.123352 
	C139.988647,695.034973 139.989029,730.946716 140.057770,766.858276 
	C140.061096,768.591797 140.768677,770.323975 141.582123,772.682190 
	C144.412415,791.041321 158.757645,803.792847 177.345123,803.898132 
	C209.303314,804.079102 241.263123,803.970093 273.222260,803.973877 
	C274.196930,803.973999 275.171631,803.876282 276.326660,803.814514 
	C276.326660,801.976135 276.326660,800.349609 275.692810,798.041809 
	C273.948883,797.695679 272.205597,797.051331 270.460968,797.047852 
	C240.047974,796.986938 209.634781,796.987366 179.221786,797.049744 
	C177.475433,797.053284 175.730392,797.700928 173.216003,798.157532 
	C157.349548,795.273010 146.993011,783.130371 146.970779,767.114502 
	C146.922211,732.117371 147.460831,697.110046 146.751816,662.127380 
	C146.430740,646.285645 157.713333,628.937378 179.978607,628.983215 
	C281.803741,629.192749 383.629517,629.088013 485.455078,629.083435 
	C562.282959,629.080017 639.110779,629.049683 715.938660,629.046387 
	C759.435486,629.044495 802.932617,629.172729 846.429016,629.044983 
	C867.674744,628.982605 879.803223,646.548950 879.512451,661.625061 
	C878.853943,695.775757 879.367126,729.947937 879.204224,764.110413 
	C879.183167,768.526733 878.536316,773.110718 877.223145,777.318604 
	C873.004456,790.837158 861.019897,798.716614 845.199890,798.765686 
	C827.534729,798.820496 809.869202,798.761169 792.203857,798.756348 
	C777.897766,798.752441 763.591614,798.755554 749.226807,798.755554 
	C749.226807,800.693359 749.226807,802.243103 749.226807,803.867859 
	C783.344543,803.867859 817.160461,803.872314 850.976379,803.848694 
	C852.126160,803.847900 853.291199,803.638489 854.423096,803.401855 
	C873.155945,799.485291 884.757263,785.314209 884.780396,766.106445 
	C884.821777,731.776123 884.750305,697.445679 884.764526,663.115295 
	C884.773560,641.220276 873.805237,627.882874 851.743774,623.071411 
	C850.094421,623.240356 848.445068,623.409302 845.945557,623.782959 
	C843.041016,623.724243 840.136414,623.665527 836.619202,622.950500 
	C830.307678,622.635559 823.998169,622.221375 817.682800,622.087891 
	C816.396851,622.060730 815.088562,623.089722 812.919495,623.824341 
	C809.348022,623.757751 805.776489,623.691162 801.753418,623.047913 
	C800.774048,623.247070 799.794678,623.446228 797.988342,623.835754 
	C795.735107,623.753357 793.481873,623.670959 790.614197,622.935364 
	C789.697144,622.630066 788.781494,622.064026 787.862732,622.058960 
	C776.151611,621.994141 764.439453,621.958862 752.729187,622.075928 
	C751.411743,622.089050 750.104126,623.079712 747.952209,623.809021 
	C745.377625,623.737671 742.803101,623.666382 739.615479,622.940308 
	C738.698486,622.633728 737.783020,622.065613 736.864258,622.060303 
	C725.148682,621.992859 713.432068,621.954529 701.717346,622.070679 
	C700.403992,622.083618 699.100525,623.088196 697.008301,623.823792 
	C695.401794,623.755432 693.795227,623.687134 691.804138,623.127502 
	C691.146729,623.291260 690.489380,623.455017 689.047302,623.814026 
	C687.439453,623.745667 685.831543,623.677307 683.695190,622.992859 
	C682.063477,623.192566 680.431702,623.392212 678.171997,623.790161 
	C677.523987,623.724243 676.876038,623.658264 675.646240,622.960449 
	C673.027771,623.174683 670.409363,623.388977 666.919556,623.797546 
	C663.341309,623.722839 659.763123,623.648132 655.794617,623.094421 
	C655.140076,623.259338 654.485474,623.424194 653.177002,623.790039 
	C652.503174,623.723938 651.829407,623.657776 650.877991,623.273560 
	C650.540588,623.378906 650.203247,623.484314 648.965027,623.788696 
	C641.720886,623.729126 634.476746,623.669495 626.619080,622.954346 
	C625.868530,622.658813 625.119812,622.111389 624.367126,622.105896 
	C614.649719,622.034851 604.931152,621.987244 595.214722,622.098877 
	C594.067810,622.112061 592.932190,623.105347 591.165955,623.832031 
	C590.522949,623.766418 589.879883,623.700745 588.629028,622.972046 
	C582.682495,623.181580 576.735962,623.391113 569.908813,623.797607 
	C565.681885,623.733154 561.454895,623.668701 556.619934,622.948608 
	C551.677673,623.163757 546.735352,623.378967 540.904602,623.793335 
	C535.680420,623.736084 530.456299,623.678833 524.643127,622.968018 
	C521.360046,623.186829 518.076904,623.405701 513.901367,623.817810 
	C498.004913,623.741943 482.108490,623.666077 465.707886,622.991516 
	C464.406616,623.210510 463.105316,623.429504 460.962982,623.839661 
	C458.386993,623.765869 455.810974,623.692078 452.623535,622.959290 
	C451.706635,622.649231 450.791046,622.073486 449.872650,622.068970 
	C436.488647,622.002930 423.103943,621.967834 409.720642,622.076965 
	C408.405853,622.087708 407.099213,623.095032 405.277283,623.825684 
	C404.925323,623.764038 404.573334,623.702393 403.725647,623.028137 
	C402.418182,623.234131 401.110687,623.440186 398.930817,623.835754 
	C395.364624,623.760010 391.798401,623.684265 387.626221,622.955444 
	C383.348541,623.180359 379.070892,623.405212 373.900391,623.819458 
M654.586182,660.713379 
	C649.995361,660.713379 645.404602,660.713379 640.314148,660.713379 
	C640.314148,668.941345 640.314148,676.815979 640.314148,686.106995 
	C632.675293,677.784180 626.004517,670.459106 619.248535,663.213379 
	C618.169250,662.055847 616.753052,660.499146 615.416199,660.420166 
	C610.013000,660.100952 604.579895,660.287720 597.576599,660.287720 
	C607.872192,671.024048 617.082764,680.628906 626.355957,690.299133 
	C616.868469,700.516846 607.643005,710.452332 597.415039,721.467468 
	C602.237244,721.467468 605.732849,721.068604 609.099365,721.557861 
	C614.604614,722.358032 618.058350,719.939392 621.364990,715.884949 
	C627.087891,708.867798 633.271790,702.226562 640.330322,694.215454 
	C640.330322,704.250488 640.330322,712.737244 640.330322,721.372437 
	C645.588623,721.372437 650.181702,721.372437 655.467651,721.372437 
	C655.467651,712.739075 655.467651,704.297546 655.467651,694.341553 
	C663.553040,703.279663 670.527771,711.050049 677.594055,718.736084 
	C678.640442,719.874268 680.080383,721.341003 681.405212,721.412354 
	C686.968140,721.711853 692.556580,721.538879 699.298279,721.538879 
	C688.868713,710.467346 679.253052,700.259766 669.589233,690.001160 
	C678.971680,680.208557 688.067871,670.714783 697.510986,660.858826 
	C680.482666,659.325073 680.482239,659.324646 670.002930,671.050293 
	C669.226135,671.919434 668.476746,672.813354 667.689392,673.672668 
	C664.052673,677.641724 660.407104,681.602600 656.764771,685.566406 
	C656.200623,685.399658 655.636536,685.232910 655.072388,685.066162 
	C655.072388,677.188843 655.072388,669.311584 654.586182,660.713379 
M751.836243,711.434692 
	C751.836243,714.725769 751.836243,718.016846 751.836243,721.288025 
	C757.139099,721.288025 761.905823,721.288025 766.701721,721.288025 
	C766.701721,701.034729 766.701721,681.085022 766.701721,660.699036 
	C764.011536,660.571594 761.536987,660.620605 759.109863,660.304810 
	C754.023926,659.643127 750.566345,661.380859 747.397156,665.673767 
	C739.192017,676.788208 730.416260,687.481750 721.839050,698.320190 
	C721.226807,699.093689 720.375671,699.678162 718.864441,701.051208 
	C718.864441,686.919434 718.864441,673.859436 718.864441,660.713989 
	C713.688232,660.713989 708.959167,660.713989 704.250488,660.713989 
	C704.250488,681.174805 704.250488,701.254028 704.250488,721.643372 
	C707.547607,721.643372 710.566528,721.363037 713.511292,721.710754 
	C717.662781,722.200989 720.236694,720.614197 722.583740,717.211975 
	C726.264832,711.875793 730.487122,706.909119 734.543335,701.836365 
	C739.892395,695.146667 745.302490,688.505737 750.686340,681.843811 
	C751.070190,681.962769 751.453979,682.081787 751.837830,682.200745 
	C751.837830,691.624023 751.837830,701.047241 751.836243,711.434692 
M317.071625,721.580139 
	C320.303772,720.082153 324.610504,719.410278 326.535034,716.907043 
	C330.080933,712.294739 333.264954,706.878235 334.724731,701.305725 
	C337.192169,691.886902 338.199646,682.085632 339.857880,672.225769 
	C346.492310,672.225769 353.574280,672.225769 361.243103,672.225769 
	C361.243103,688.701172 361.243103,704.900391 361.243103,721.166626 
	C366.549042,721.166626 371.261047,721.166626 375.873047,721.166626 
	C375.873047,700.732544 375.873047,680.684509 375.873047,660.685913 
	C358.439789,660.685913 341.386383,660.685913 323.970184,660.685913 
	C323.970184,663.750061 324.275726,666.447815 323.916901,669.054138 
	C322.425690,679.885071 321.102753,690.762146 318.960968,701.470886 
	C317.886780,706.841736 314.589264,711.237610 307.942444,711.370789 
	C307.942444,714.826050 307.942444,718.067932 307.942444,721.599792 
	C310.912537,721.599792 313.556427,721.599792 317.071625,721.580139 
M810.243774,671.742615 
	C805.309326,676.500854 800.374878,681.259094 795.440430,686.017334 
	C794.995178,685.760925 794.549988,685.504517 794.104736,685.248047 
	C794.104736,677.035461 794.104736,668.822876 794.104736,660.656067 
	C788.875854,660.656067 784.272034,660.656067 779.451965,660.656067 
	C779.451965,681.038696 779.451965,701.062805 779.451965,721.357361 
	C784.393555,721.357361 788.999268,721.357361 794.403076,721.357361 
	C794.403076,712.667053 794.403076,704.023560 794.403076,694.173157 
	C796.697632,696.099731 798.021423,697.028625 799.126709,698.169250 
	C805.728943,704.982178 812.256104,711.867920 818.873596,718.665710 
	C819.982605,719.804932 821.368225,721.400208 822.698120,721.473267 
	C828.380432,721.785645 834.089844,721.606262 841.215637,721.606262 
	C830.074585,710.156311 820.065735,699.869873 809.943298,689.466797 
	C819.974976,679.849670 829.633545,670.590271 839.831421,660.813904 
	C829.089417,659.927734 819.049744,658.295349 812.822083,669.094727 
	C812.339417,669.931702 811.446167,670.531799 810.243774,671.742615 
M188.686203,661.222473 
	C188.686203,681.145569 188.686203,701.068665 188.686203,721.270081 
	C193.902878,721.270081 198.660248,721.270081 204.018082,721.270081 
	C204.018082,704.707520 204.018082,688.326233 204.018082,671.781982 
	C216.410507,671.781982 228.206146,671.781982 240.314941,671.781982 
	C240.314941,668.037781 240.314941,664.477966 240.314941,660.539856 
	C223.147751,660.539856 206.203598,660.539856 188.686203,661.222473 
M628.801880,782.502625 
	C628.801880,785.930481 628.801880,789.358337 628.801880,792.733215 
	C631.205017,792.733215 633.257812,792.733215 635.350464,792.733215 
	C635.617737,790.634583 635.839294,788.895020 636.043884,787.288208 
	C644.020386,787.288208 651.577209,787.288208 659.219604,787.288208 
	C659.315979,789.250671 659.395935,790.878296 659.485352,792.697937 
	C661.755676,792.697937 663.790955,792.697937 666.250916,792.697937 
	C666.250916,789.578430 666.350708,786.754639 666.196350,783.944824 
	C666.142700,782.969116 665.521301,781.996277 665.049438,781.078552 
	C664.364075,779.745483 662.980469,778.483032 662.937500,777.156677 
	C662.718994,770.415771 662.836731,763.663818 662.836731,756.892151 
	C653.718262,756.892151 645.018860,756.892151 636.261963,756.892151 
	C636.034729,761.427551 636.031677,765.590332 635.566895,769.700928 
	C635.019226,774.545044 633.706421,779.140137 628.801880,782.502625 
M323.432465,774.721985 
	C325.884705,774.721985 328.336945,774.721985 330.869171,774.721985 
	C329.232574,783.434509 320.156433,784.542480 308.488861,777.692566 
	C307.051788,778.777954 305.510712,779.941895 303.980377,781.097717 
	C309.400482,789.029968 325.978180,789.167236 332.675446,784.996887 
	C336.918182,782.354919 339.331421,778.683350 339.415375,773.518677 
	C339.533051,766.279907 335.711426,760.266602 329.336853,757.832825 
	C321.437317,754.817017 307.553253,755.600403 303.705444,762.958130 
	C305.630402,764.104553 307.578979,765.265015 309.489166,766.402649 
	C318.231506,758.932922 328.253601,760.239563 330.253571,769.374268 
	C323.948364,769.374268 317.715118,769.374268 311.256683,769.374268 
	C311.256683,771.309937 311.256683,772.859070 311.256683,774.726501 
	C315.198639,774.726501 318.835510,774.726501 323.432465,774.721985 
M540.032715,760.487671 
	C536.659180,763.524597 533.285645,766.561523 528.991943,770.426880 
	C528.991943,765.040588 528.991943,760.957764 528.991943,756.695740 
	C526.215088,756.695740 523.963501,756.695740 521.597290,756.695740 
	C521.597290,766.859619 521.597290,776.764709 521.597290,786.802551 
	C524.213074,786.802551 526.481140,786.802551 528.551331,786.802551 
	C530.518433,782.677185 526.777283,777.229919 531.792053,774.131165 
	C538.895630,779.051636 541.676941,790.614075 553.437622,786.393188 
	C548.534302,781.136108 543.684875,775.936829 538.623596,770.510437 
	C543.573914,765.878540 548.315613,761.441833 553.625854,756.473206 
	C548.266296,756.562195 543.543152,755.224548 540.032715,760.487671 
M493.080566,786.950745 
	C495.382782,786.950745 497.684998,786.950745 500.508240,786.950745 
	C495.519531,776.964355 491.074951,767.166992 485.585663,757.994873 
	C484.705505,756.524170 477.055145,756.556030 476.108582,758.093567 
	C470.511932,767.184692 465.970734,776.925598 461.013245,786.566895 
	C465.911011,787.578796 469.570892,787.251343 470.934082,782.143799 
	C471.083313,781.584656 471.744659,780.750427 472.181213,780.742554 
	C477.310974,780.649292 482.528076,780.162842 487.530487,780.969238 
	C489.381042,781.267517 490.728210,784.688599 493.080566,786.950745 
M577.099548,787.036377 
	C577.865845,786.549011 579.143738,786.199280 579.317749,785.552551 
	C580.734253,780.287415 584.596497,779.926941 589.025940,780.311279 
	C591.342102,780.512268 593.707825,780.228577 596.004883,780.523865 
	C597.134827,780.669067 598.877380,781.426514 599.117249,782.259827 
	C600.885803,788.403931 605.302795,787.121521 610.097046,786.671265 
	C605.156616,776.864014 600.512634,767.501892 595.717346,758.218018 
	C594.371338,755.612000 586.899109,755.462585 585.478333,758.122437 
	C580.482056,767.475769 575.740417,776.964966 570.584717,787.021790 
	C572.995300,787.021790 574.629883,787.021790 577.099548,787.036377 
M702.265381,756.579346 
	C701.568909,756.940308 700.531372,757.119080 700.226868,757.689392 
	C695.159546,767.177612 690.184204,776.714905 685.188354,786.241272 
	C685.517456,786.740234 685.846558,787.239258 686.175659,787.738281 
	C688.741882,786.741638 692.637085,786.437256 693.593018,784.601929 
	C695.485779,780.967957 697.623413,779.911072 701.369751,780.346191 
	C704.161682,780.670410 707.029846,780.316833 709.829956,780.601196 
	C711.138611,780.734009 713.257202,781.419189 713.488037,782.267822 
	C715.115662,788.250305 719.429871,787.250671 724.172058,786.759583 
	C719.959717,778.315308 715.641846,770.292297 711.948486,761.991455 
	C710.066895,757.762695 707.669434,755.677429 702.265381,756.579346 
M361.973724,764.636719 
	C358.716644,773.412781 360.920837,780.850037 368.019928,785.037354 
	C376.384216,789.970947 388.939056,788.284546 395.032104,781.257629 
	C393.385803,780.186340 391.770966,779.135559 390.269135,778.158264 
	C383.620911,782.743713 374.988556,782.850159 371.223358,778.584351 
	C367.878906,774.795166 368.043152,768.026001 371.566956,764.425293 
	C375.632416,760.270935 383.701935,760.849976 390.263336,765.863953 
	C391.930206,764.734375 393.639374,763.576172 395.385620,762.392822 
	C386.593506,752.899475 370.250122,753.815125 361.973724,764.636719 
M444.177399,761.900574 
	C444.624023,760.238892 445.070648,758.577148 445.537537,756.839966 
	C434.496429,756.839966 424.427307,756.839966 414.378540,756.839966 
	C414.378540,758.829895 414.378540,760.378296 414.378540,762.334961 
	C418.317200,762.334961 421.920288,762.334961 426.015839,762.334961 
	C426.015839,770.770996 426.015839,778.806152 426.015839,786.772461 
	C428.787048,786.772461 431.032104,786.772461 433.850098,786.772461 
	C433.850098,778.425415 433.850098,770.376831 433.850098,762.003418 
	C437.410736,762.003418 440.396637,762.003418 444.177399,761.900574 
z"/>
<path fill="#F4F6F8" opacity="1.000000" stroke="none" 
	d="
M276.326660,798.723145 
	C276.326660,800.349609 276.326660,801.976135 276.326660,803.814514 
	C275.171631,803.876282 274.196930,803.973999 273.222260,803.973877 
	C241.263123,803.970093 209.303314,804.079102 177.345123,803.898132 
	C158.757645,803.792847 144.412415,791.041321 141.403839,771.897644 
	C141.225876,762.780823 141.207199,754.448547 141.229858,746.116333 
	C141.313736,715.287781 141.411285,684.459290 141.503677,653.630737 
	C145.358932,636.434814 156.290146,626.835022 174.211304,623.850708 
	C176.741714,623.742004 178.486023,623.677856 180.230331,623.613647 
	C183.132278,623.685852 186.034241,623.758057 189.810272,623.815430 
	C197.532730,623.734741 204.381104,623.668884 211.229492,623.603027 
	C219.119644,623.674438 227.009781,623.745789 235.824356,623.803894 
	C245.242920,623.734314 253.737061,623.677979 262.231201,623.621704 
	C270.522675,623.696472 278.814178,623.771240 287.909241,623.824707 
	C290.885651,623.743530 293.058472,623.683655 295.231293,623.623718 
	C296.185699,623.692078 297.140076,623.760376 298.921631,623.814575 
	C307.244080,623.745911 314.739380,623.691406 322.234680,623.636902 
	C328.790741,623.685120 335.346832,623.733276 342.810669,623.762573 
	C346.221588,623.693420 348.724670,623.643066 351.227783,623.592773 
	C358.785309,623.668335 366.342865,623.743896 374.751404,623.806274 
	C379.812378,623.731567 384.022278,623.670044 388.232208,623.608521 
	C391.798401,623.684265 395.364624,623.760010 399.804932,623.818237 
	C401.859802,623.747437 403.040588,623.694092 404.221375,623.640747 
	C404.573334,623.702393 404.925323,623.764038 405.987366,623.810669 
	C422.209930,623.736511 437.722473,623.677429 453.234985,623.618286 
	C455.810974,623.692078 458.386993,623.765869 461.821106,623.819702 
	C463.856842,623.729858 465.034424,623.659973 466.212036,623.590149 
	C482.108490,623.666077 498.004913,623.741943 514.816345,623.800659 
	C518.898254,623.729553 522.065186,623.675598 525.232117,623.621582 
	C530.456299,623.678833 535.680420,623.736084 541.824951,623.776245 
	C547.572815,623.707581 552.400391,623.655945 557.227966,623.604248 
	C561.454895,623.668701 565.681885,623.733154 570.826843,623.782043 
	C577.575562,623.722717 583.406189,623.678955 589.236877,623.635132 
	C589.879883,623.700745 590.522949,623.766418 591.912231,623.816528 
	C604.183228,623.737366 615.707886,623.673645 627.232605,623.609985 
	C634.476746,623.669495 641.720886,623.729126 649.737793,623.758057 
	C650.725586,623.682251 650.940552,623.636963 651.155579,623.591675 
	C651.829407,623.657776 652.503174,623.723938 653.894104,623.768127 
	C655.135742,623.688660 655.660339,623.631042 656.184875,623.573486 
	C659.763123,623.648132 663.341309,623.722839 667.818237,623.782837 
	C671.220642,623.709473 673.724304,623.650940 676.228027,623.592285 
	C676.876038,623.658264 677.523987,623.724243 678.932983,623.773438 
	C681.203857,623.707397 682.713745,623.658142 684.223694,623.608948 
	C685.831543,623.677307 687.439453,623.745667 689.829895,623.793945 
	C691.137878,623.722229 691.663330,623.670532 692.188721,623.618896 
	C693.795227,623.687134 695.401794,623.755432 697.878723,623.807617 
	C712.575623,623.725952 726.402039,623.660522 740.228516,623.595093 
	C742.803101,623.666382 745.377625,623.737671 748.850220,623.794189 
	C763.575012,623.715698 777.401855,623.652100 791.228638,623.588562 
	C793.481873,623.670959 795.735107,623.753357 798.822510,623.817017 
	C800.506165,623.740356 801.355591,623.682495 802.205017,623.624634 
	C805.776489,623.691162 809.348022,623.757751 813.833618,623.806763 
	C822.242493,623.728333 829.737183,623.667542 837.231873,623.606750 
	C840.136414,623.665527 843.041016,623.724243 846.820068,623.760803 
	C849.218140,623.731384 850.741699,623.724182 852.265198,623.716919 
	C873.805237,627.882874 884.773560,641.220276 884.764526,663.115295 
	C884.750305,697.445679 884.821777,731.776123 884.780396,766.106445 
	C884.757263,785.314209 873.155945,799.485291 854.423096,803.401855 
	C853.291199,803.638489 852.126160,803.847900 850.976379,803.848694 
	C817.160461,803.872314 783.344543,803.867859 749.226807,803.867859 
	C749.226807,802.243103 749.226807,800.693359 749.226807,798.755554 
	C763.591614,798.755554 777.897766,798.752441 792.203857,798.756348 
	C809.869202,798.761169 827.534729,798.820496 845.199890,798.765686 
	C861.019897,798.716614 873.004456,790.837158 877.223145,777.318604 
	C878.536316,773.110718 879.183167,768.526733 879.204224,764.110413 
	C879.367126,729.947937 878.853943,695.775757 879.512451,661.625061 
	C879.803223,646.548950 867.674744,628.982605 846.429016,629.044983 
	C802.932617,629.172729 759.435486,629.044495 715.938660,629.046387 
	C639.110779,629.049683 562.282959,629.080017 485.455078,629.083435 
	C383.629517,629.088013 281.803741,629.192749 179.978607,628.983215 
	C157.713333,628.937378 146.430740,646.285645 146.751816,662.127380 
	C147.460831,697.110046 146.922211,732.117371 146.970779,767.114502 
	C146.993011,783.130371 157.349548,795.273010 174.045593,798.266785 
	C208.692337,798.491760 242.509491,798.607483 276.326660,798.723145 
z"/>
<path fill="#F7F8FA" opacity="1.000000" stroke="none" 
	d="
M654.829285,661.073853 
	C655.072388,669.311584 655.072388,677.188843 655.072388,685.066162 
	C655.636536,685.232910 656.200623,685.399658 656.764771,685.566406 
	C660.407104,681.602600 664.052673,677.641724 667.689392,673.672668 
	C668.476746,672.813354 669.226135,671.919434 670.002930,671.050293 
	C680.482239,659.324646 680.482666,659.325073 697.510986,660.858826 
	C688.067871,670.714783 678.971680,680.208557 669.589233,690.001160 
	C679.253052,700.259766 688.868713,710.467346 699.298279,721.538879 
	C692.556580,721.538879 686.968140,721.711853 681.405212,721.412354 
	C680.080383,721.341003 678.640442,719.874268 677.594055,718.736084 
	C670.527771,711.050049 663.553040,703.279663 655.467651,694.341553 
	C655.467651,704.297546 655.467651,712.739075 655.467651,721.372437 
	C650.181702,721.372437 645.588623,721.372437 640.330322,721.372437 
	C640.330322,712.737244 640.330322,704.250488 640.330322,694.215454 
	C633.271790,702.226562 627.087891,708.867798 621.364990,715.884949 
	C618.058350,719.939392 614.604614,722.358032 609.099365,721.557861 
	C605.732849,721.068604 602.237244,721.467468 597.415039,721.467468 
	C607.643005,710.452332 616.868469,700.516846 626.355957,690.299133 
	C617.082764,680.628906 607.872192,671.024048 597.576599,660.287720 
	C604.579895,660.287720 610.013000,660.100952 615.416199,660.420166 
	C616.753052,660.499146 618.169250,662.055847 619.248535,663.213379 
	C626.004517,670.459106 632.675293,677.784180 640.314148,686.106995 
	C640.314148,676.815979 640.314148,668.941345 640.314148,660.713379 
	C645.404602,660.713379 649.995361,660.713379 654.829285,661.073853 
z"/>
<path fill="#F6F7F9" opacity="1.000000" stroke="none" 
	d="
M589.918396,660.635071 
	C589.918396,677.083679 589.918396,693.532288 589.918396,710.023315 
	C592.136658,710.249634 593.933960,710.432983 596.207520,710.664917 
	C596.207520,718.279663 596.207520,725.827209 596.207520,733.668091 
	C591.890442,733.668091 587.628723,733.668091 583.008545,733.668091 
	C583.008545,729.898621 583.008545,726.112915 583.008545,721.953796 
	C567.408875,721.953796 552.158752,721.953796 536.390625,721.953796 
	C536.390625,725.859863 536.390625,729.768433 536.390625,733.872192 
	C531.587402,733.872192 527.297546,733.872192 522.623291,733.872192 
	C522.623291,726.466431 522.623291,719.069885 522.623291,711.357544 
	C529.576111,710.634949 532.002014,705.090332 534.079407,699.396179 
	C538.550293,687.141602 539.154297,674.351074 539.500122,661.067566 
	C544.022461,660.508423 548.041504,660.359497 552.060547,660.210571 
	C553.430603,660.269165 554.800659,660.327759 557.020142,660.361816 
	C561.264099,660.289307 564.658630,660.241211 568.053101,660.193115 
	C574.390076,660.259827 580.727112,660.326477 587.835571,660.367432 
	C589.044189,660.439453 589.481262,660.537231 589.918396,660.635071 
M574.900330,686.505249 
	C574.900330,681.748047 574.900330,676.990845 574.900330,672.258057 
	C567.404419,672.258057 560.528564,672.258057 553.480347,672.258057 
	C552.604736,685.503906 551.211914,698.305298 543.640869,710.008606 
	C554.325378,710.008606 564.347656,710.008606 574.901184,710.008606 
	C574.901184,702.369934 574.901184,694.936951 574.900330,686.505249 
z"/>
<path fill="#F8F8FA" opacity="1.000000" stroke="none" 
	d="
M751.837036,710.952637 
	C751.837830,701.047241 751.837830,691.624023 751.837830,682.200745 
	C751.453979,682.081787 751.070190,681.962769 750.686340,681.843811 
	C745.302490,688.505737 739.892395,695.146667 734.543335,701.836365 
	C730.487122,706.909119 726.264832,711.875793 722.583740,717.211975 
	C720.236694,720.614197 717.662781,722.200989 713.511292,721.710754 
	C710.566528,721.363037 707.547607,721.643372 704.250488,721.643372 
	C704.250488,701.254028 704.250488,681.174805 704.250488,660.713989 
	C708.959167,660.713989 713.688232,660.713989 718.864441,660.713989 
	C718.864441,673.859436 718.864441,686.919434 718.864441,701.051208 
	C720.375671,699.678162 721.226807,699.093689 721.839050,698.320190 
	C730.416260,687.481750 739.192017,676.788208 747.397156,665.673767 
	C750.566345,661.380859 754.023926,659.643127 759.109863,660.304810 
	C761.536987,660.620605 764.011536,660.571594 766.701721,660.699036 
	C766.701721,681.085022 766.701721,701.034729 766.701721,721.288025 
	C761.905823,721.288025 757.139099,721.288025 751.836243,721.288025 
	C751.836243,718.016846 751.836243,714.725769 751.837036,710.952637 
z"/>
<path fill="#F2F3F7" opacity="1.000000" stroke="none" 
	d="
M268.451172,660.041382 
	C278.321472,660.125366 288.191803,660.209290 298.918091,660.289917 
	C300.600220,660.338806 301.426361,660.390991 302.252502,660.443176 
	C302.252502,664.075867 302.252502,667.708496 302.252502,671.619263 
	C289.439026,671.619263 277.014648,671.619263 264.155518,671.619263 
	C264.155518,676.089722 264.155518,680.289368 264.155518,684.981445 
	C275.741211,684.981445 287.176971,684.981445 299.004211,684.981445 
	C299.004211,688.834045 299.004211,692.206726 299.004211,695.768555 
	C287.330078,695.768555 275.877838,695.768555 264.080048,695.768555 
	C264.080048,700.497192 264.080048,705.043640 264.080048,710.123657 
	C276.953613,710.123657 289.691833,710.123657 302.752228,710.123657 
	C302.752228,714.057190 302.752228,717.470703 302.752228,721.284424 
	C284.898956,721.284424 267.015961,721.284424 248.598923,721.284424 
	C248.598923,701.072205 248.598923,681.026245 249.173004,660.600342 
	C250.064667,659.873230 250.382217,659.526123 250.699768,659.178955 
	C253.608154,659.546814 256.516571,659.914612 260.197998,660.263428 
	C263.464417,660.176758 265.957794,660.109070 268.451172,660.041382 
z"/>
<path fill="#F3F4F7" opacity="1.000000" stroke="none" 
	d="
M392.016144,660.062378 
	C408.799377,660.062378 425.582581,660.062378 442.650299,660.062378 
	C442.650299,664.165466 442.650299,667.591736 442.650299,671.534668 
	C430.302063,671.534668 417.914215,671.534668 405.157043,671.534668 
	C405.157043,676.107117 405.157043,680.174438 405.157043,684.874268 
	C416.315277,684.874268 427.527832,684.874268 438.987366,684.874268 
	C438.987366,688.755859 438.987366,692.014160 438.987366,695.523682 
	C427.693695,695.523682 416.594910,695.523682 405.130432,695.523682 
	C405.130432,700.303589 405.130432,704.889099 405.130432,710.018372 
	C417.525726,710.018372 430.090973,710.018372 442.996216,710.018372 
	C442.996216,713.978638 442.996216,717.404785 442.996216,721.236084 
	C425.234100,721.236084 407.524780,721.236084 389.471710,721.236084 
	C389.471710,700.911621 389.471710,680.842468 390.062744,660.498901 
	C391.107910,660.170532 391.562042,660.116455 392.016144,660.062378 
z"/>
<path fill="#F5F6F8" opacity="1.000000" stroke="none" 
	d="
M515.845825,721.044739 
	C510.766296,721.044739 505.686798,721.044739 500.139099,721.044739 
	C500.139099,712.791138 500.139099,704.564636 500.139099,696.143799 
	C489.434784,696.143799 479.200104,696.143799 468.364105,696.143799 
	C468.364105,704.608826 468.364105,712.842102 468.364105,721.238647 
	C463.024994,721.238647 458.291687,721.238647 453.321869,721.238647 
	C453.321869,700.865845 453.321869,680.830627 453.321869,660.524536 
	C458.309509,660.524536 463.060486,660.524536 468.292236,660.524536 
	C468.292236,668.536072 468.292236,676.463013 468.292236,684.773071 
	C478.992249,684.773071 489.224274,684.773071 500.097931,684.773071 
	C500.097931,676.943481 500.097931,668.907715 500.097931,660.645935 
	C505.502106,660.645935 510.275146,660.645935 515.388672,661.257446 
	C515.768066,681.594177 515.806946,701.319458 515.845825,721.044739 
z"/>
<path fill="#F7F8FA" opacity="1.000000" stroke="none" 
	d="
M316.635956,721.589966 
	C313.556427,721.599792 310.912537,721.599792 307.942444,721.599792 
	C307.942444,718.067932 307.942444,714.826050 307.942444,711.370789 
	C314.589264,711.237610 317.886780,706.841736 318.960968,701.470886 
	C321.102753,690.762146 322.425690,679.885071 323.916901,669.054138 
	C324.275726,666.447815 323.970184,663.750061 323.970184,660.685913 
	C341.386383,660.685913 358.439789,660.685913 375.873047,660.685913 
	C375.873047,680.684509 375.873047,700.732544 375.873047,721.166626 
	C371.261047,721.166626 366.549042,721.166626 361.243103,721.166626 
	C361.243103,704.900391 361.243103,688.701172 361.243103,672.225769 
	C353.574280,672.225769 346.492310,672.225769 339.857880,672.225769 
	C338.199646,682.085632 337.192169,691.886902 334.724731,701.305725 
	C333.264954,706.878235 330.080933,712.294739 326.535034,716.907043 
	C324.610504,719.410278 320.303772,720.082153 316.635956,721.589966 
z"/>
<path fill="#F6F7F9" opacity="1.000000" stroke="none" 
	d="
M810.493774,671.492310 
	C811.446167,670.531799 812.339417,669.931702 812.822083,669.094727 
	C819.049744,658.295349 829.089417,659.927734 839.831421,660.813904 
	C829.633545,670.590271 819.974976,679.849670 809.943298,689.466797 
	C820.065735,699.869873 830.074585,710.156311 841.215637,721.606262 
	C834.089844,721.606262 828.380432,721.785645 822.698120,721.473267 
	C821.368225,721.400208 819.982605,719.804932 818.873596,718.665710 
	C812.256104,711.867920 805.728943,704.982178 799.126709,698.169250 
	C798.021423,697.028625 796.697632,696.099731 794.403076,694.173157 
	C794.403076,704.023560 794.403076,712.667053 794.403076,721.357361 
	C788.999268,721.357361 784.393555,721.357361 779.451965,721.357361 
	C779.451965,701.062805 779.451965,681.038696 779.451965,660.656067 
	C784.272034,660.656067 788.875854,660.656067 794.104736,660.656067 
	C794.104736,668.822876 794.104736,677.035461 794.104736,685.248047 
	C794.549988,685.504517 794.995178,685.760925 795.440430,686.017334 
	C800.374878,681.259094 805.309326,676.500854 810.493774,671.492310 
z"/>
<path fill="#F3F4F7" opacity="1.000000" stroke="none" 
	d="
M188.972809,660.881165 
	C206.203598,660.539856 223.147751,660.539856 240.314941,660.539856 
	C240.314941,664.477966 240.314941,668.037781 240.314941,671.781982 
	C228.206146,671.781982 216.410507,671.781982 204.018082,671.781982 
	C204.018082,688.326233 204.018082,704.707520 204.018082,721.270081 
	C198.660248,721.270081 193.902878,721.270081 188.686203,721.270081 
	C188.686203,701.068665 188.686203,681.145569 188.972809,660.881165 
z"/>
<path fill="#F5F6F8" opacity="1.000000" stroke="none" 
	d="
M628.859131,782.109863 
	C633.706421,779.140137 635.019226,774.545044 635.566895,769.700928 
	C636.031677,765.590332 636.034729,761.427551 636.261963,756.892151 
	C645.018860,756.892151 653.718262,756.892151 662.836731,756.892151 
	C662.836731,763.663818 662.718994,770.415771 662.937500,777.156677 
	C662.980469,778.483032 664.364075,779.745483 665.049438,781.078552 
	C665.521301,781.996277 666.142700,782.969116 666.196350,783.944824 
	C666.350708,786.754639 666.250916,789.578430 666.250916,792.697937 
	C663.790955,792.697937 661.755676,792.697937 659.485352,792.697937 
	C659.395935,790.878296 659.315979,789.250671 659.219604,787.288208 
	C651.577209,787.288208 644.020386,787.288208 636.043884,787.288208 
	C635.839294,788.895020 635.617737,790.634583 635.350464,792.733215 
	C633.257812,792.733215 631.205017,792.733215 628.801880,792.733215 
	C628.801880,789.358337 628.801880,785.930481 628.859131,782.109863 
M654.122803,762.004028 
	C650.698120,762.004028 647.273376,762.004028 644.326538,762.004028 
	C642.751221,768.731018 641.320618,774.839966 639.942688,780.723755 
	C644.949951,780.723755 650.160034,780.723755 656.073853,780.723755 
	C655.702454,774.314819 655.353516,768.292603 654.122803,762.004028 
z"/>
<path fill="#F2F3F7" opacity="1.000000" stroke="none" 
	d="
M322.952393,774.724243 
	C318.835510,774.726501 315.198639,774.726501 311.256683,774.726501 
	C311.256683,772.859070 311.256683,771.309937 311.256683,769.374268 
	C317.715118,769.374268 323.948364,769.374268 330.253571,769.374268 
	C328.253601,760.239563 318.231506,758.932922 309.489166,766.402649 
	C307.578979,765.265015 305.630402,764.104553 303.705444,762.958130 
	C307.553253,755.600403 321.437317,754.817017 329.336853,757.832825 
	C335.711426,760.266602 339.533051,766.279907 339.415375,773.518677 
	C339.331421,778.683350 336.918182,782.354919 332.675446,784.996887 
	C325.978180,789.167236 309.400482,789.029968 303.980377,781.097717 
	C305.510712,779.941895 307.051788,778.777954 308.488861,777.692566 
	C320.156433,784.542480 329.232574,783.434509 330.869171,774.721985 
	C328.336945,774.721985 325.884705,774.721985 322.952393,774.724243 
z"/>
<path fill="#F2F3F7" opacity="1.000000" stroke="none" 
	d="
M540.291504,760.233704 
	C543.543152,755.224548 548.266296,756.562195 553.625854,756.473206 
	C548.315613,761.441833 543.573914,765.878540 538.623596,770.510437 
	C543.684875,775.936829 548.534302,781.136108 553.437622,786.393188 
	C541.676941,790.614075 538.895630,779.051636 531.792053,774.131165 
	C526.777283,777.229919 530.518433,782.677185 528.551331,786.802551 
	C526.481140,786.802551 524.213074,786.802551 521.597290,786.802551 
	C521.597290,776.764709 521.597290,766.859619 521.597290,756.695740 
	C523.963501,756.695740 526.215088,756.695740 528.991943,756.695740 
	C528.991943,760.957764 528.991943,765.040588 528.991943,770.426880 
	C533.285645,766.561523 536.659180,763.524597 540.291504,760.233704 
z"/>
<path fill="#F2F3F7" opacity="1.000000" stroke="none" 
	d="
M492.692749,786.818115 
	C490.728210,784.688599 489.381042,781.267517 487.530487,780.969238 
	C482.528076,780.162842 477.310974,780.649292 472.181213,780.742554 
	C471.744659,780.750427 471.083313,781.584656 470.934082,782.143799 
	C469.570892,787.251343 465.911011,787.578796 461.013245,786.566895 
	C465.970734,776.925598 470.511932,767.184692 476.108582,758.093567 
	C477.055145,756.556030 484.705505,756.524170 485.585663,757.994873 
	C491.074951,767.166992 495.519531,776.964355 500.508240,786.950745 
	C497.684998,786.950745 495.382782,786.950745 492.692749,786.818115 
M483.795593,775.118713 
	C484.315674,774.611694 485.377197,773.885620 485.274078,773.630798 
	C483.876007,770.175720 482.316284,766.786072 480.388885,762.466736 
	C478.246979,767.095581 476.540375,770.783630 474.545197,775.095398 
	C477.772186,775.095398 480.363495,775.095398 483.795593,775.118713 
z"/>
<path fill="#F2F3F7" opacity="1.000000" stroke="none" 
	d="
M576.682007,787.029053 
	C574.629883,787.021790 572.995300,787.021790 570.584717,787.021790 
	C575.740417,776.964966 580.482056,767.475769 585.478333,758.122437 
	C586.899109,755.462585 594.371338,755.612000 595.717346,758.218018 
	C600.512634,767.501892 605.156616,776.864014 610.097046,786.671265 
	C605.302795,787.121521 600.885803,788.403931 599.117249,782.259827 
	C598.877380,781.426514 597.134827,780.669067 596.004883,780.523865 
	C593.707825,780.228577 591.342102,780.512268 589.025940,780.311279 
	C584.596497,779.926941 580.734253,780.287415 579.317749,785.552551 
	C579.143738,786.199280 577.865845,786.549011 576.682007,787.029053 
M586.981995,769.453125 
	C586.129822,771.211365 585.277649,772.969543 584.263794,775.061401 
	C588.285706,775.061401 591.880676,775.061401 596.040771,775.061401 
	C594.189575,770.915161 592.506226,767.144836 590.501343,762.654175 
	C589.110840,765.286804 588.188843,767.032288 586.981995,769.453125 
z"/>
<path fill="#F3F4F7" opacity="1.000000" stroke="none" 
	d="
M702.656250,756.584290 
	C707.669434,755.677429 710.066895,757.762695 711.948486,761.991455 
	C715.641846,770.292297 719.959717,778.315308 724.172058,786.759583 
	C719.429871,787.250671 715.115662,788.250305 713.488037,782.267822 
	C713.257202,781.419189 711.138611,780.734009 709.829956,780.601196 
	C707.029846,780.316833 704.161682,780.670410 701.369751,780.346191 
	C697.623413,779.911072 695.485779,780.967957 693.593018,784.601929 
	C692.637085,786.437256 688.741882,786.741638 686.175659,787.738281 
	C685.846558,787.239258 685.517456,786.740234 685.188354,786.241272 
	C690.184204,776.714905 695.159546,767.177612 700.226868,757.689392 
	C700.531372,757.119080 701.568909,756.940308 702.656250,756.584290 
M706.229797,766.287903 
	C705.720642,765.458618 705.211548,764.629395 704.278625,763.109863 
	C702.328308,767.327515 700.634216,770.991089 698.809143,774.937866 
	C702.804688,774.937866 706.228821,774.937866 710.183044,774.937866 
	C708.877502,772.034546 707.734863,769.493530 706.229797,766.287903 
z"/>
<path fill="#F2F3F7" opacity="1.000000" stroke="none" 
	d="
M362.144165,764.304321 
	C370.250122,753.815125 386.593506,752.899475 395.385620,762.392822 
	C393.639374,763.576172 391.930206,764.734375 390.263336,765.863953 
	C383.701935,760.849976 375.632416,760.270935 371.566956,764.425293 
	C368.043152,768.026001 367.878906,774.795166 371.223358,778.584351 
	C374.988556,782.850159 383.620911,782.743713 390.269135,778.158264 
	C391.770966,779.135559 393.385803,780.186340 395.032104,781.257629 
	C388.939056,788.284546 376.384216,789.970947 368.019928,785.037354 
	C360.920837,780.850037 358.716644,773.412781 362.144165,764.304321 
z"/>
<path fill="#F2F3F7" opacity="1.000000" stroke="none" 
	d="
M443.779968,761.952026 
	C440.396637,762.003418 437.410736,762.003418 433.850098,762.003418 
	C433.850098,770.376831 433.850098,778.425415 433.850098,786.772461 
	C431.032104,786.772461 428.787048,786.772461 426.015839,786.772461 
	C426.015839,778.806152 426.015839,770.770996 426.015839,762.334961 
	C421.920288,762.334961 418.317200,762.334961 414.378540,762.334961 
	C414.378540,760.378296 414.378540,758.829895 414.378540,756.839966 
	C424.427307,756.839966 434.496429,756.839966 445.537537,756.839966 
	C445.070648,758.577148 444.624023,760.238892 443.779968,761.952026 
z"/>
<path fill="#1D3264" opacity="1.000000" stroke="none" 
	d="
M141.202972,653.983154 
	C141.411285,684.459290 141.313736,715.287781 141.229858,746.116333 
	C141.207199,754.448547 141.225876,762.780823 141.186920,771.584961 
	C140.768677,770.323975 140.061096,768.591797 140.057770,766.858276 
	C139.989029,730.946716 139.988647,695.034973 140.034149,659.123352 
	C140.036179,657.527100 140.600082,655.931519 141.202972,653.983154 
z"/>
<path fill="#1D3264" opacity="1.000000" stroke="none" 
	d="
M276.009735,798.382507 
	C242.509491,798.607483 208.692337,798.491760 174.429947,798.212402 
	C175.730392,797.700928 177.475433,797.053284 179.221786,797.049744 
	C209.634781,796.987366 240.047974,796.986938 270.460968,797.047852 
	C272.205597,797.051331 273.948883,797.695679 276.009735,798.382507 
z"/>
<path fill="#1D3264" opacity="1.000000" stroke="none" 
	d="
M452.929260,623.288818 
	C437.722473,623.677429 422.209930,623.736511 406.243103,623.717712 
	C407.099213,623.095032 408.405853,622.087708 409.720642,622.076965 
	C423.103943,621.967834 436.488647,622.002930 449.872650,622.068970 
	C450.791046,622.073486 451.706635,622.649231 452.929260,623.288818 
z"/>
<path fill="#1D3264" opacity="1.000000" stroke="none" 
	d="
M516.118042,720.723145 
	C515.806946,701.319458 515.768066,681.594177 515.759277,661.394714 
	C516.194946,662.310120 516.946960,663.698181 516.953430,665.089600 
	C517.034851,682.564575 517.018311,700.040039 516.983398,717.515320 
	C516.981445,718.477844 516.596741,719.439514 516.118042,720.723145 
z"/>
<path fill="#1D3264" opacity="1.000000" stroke="none" 
	d="
M268.592346,659.630066 
	C265.957794,660.109070 263.464417,660.176758 260.651550,660.156616 
	C259.107025,654.086670 264.587982,653.902710 268.733551,650.388733 
	C268.733551,654.120667 268.733551,656.669739 268.592346,659.630066 
z"/>
<path fill="#1D3264" opacity="1.000000" stroke="none" 
	d="
M626.925842,623.282166 
	C615.707886,623.673645 604.183228,623.737366 592.224976,623.722656 
	C592.932190,623.105347 594.067810,622.112061 595.214722,622.098877 
	C604.931152,621.987244 614.649719,622.034851 624.367126,622.105896 
	C625.119812,622.111389 625.868530,622.658813 626.925842,623.282166 
z"/>
<path fill="#1D3264" opacity="1.000000" stroke="none" 
	d="
M790.921387,623.261963 
	C777.401855,623.652100 763.575012,623.715698 749.270142,623.698242 
	C750.104126,623.079712 751.411743,622.089050 752.729187,622.075928 
	C764.439453,621.958862 776.151611,621.994141 787.862732,622.058960 
	C788.781494,622.064026 789.697144,622.630066 790.921387,623.261963 
z"/>
<path fill="#1D3264" opacity="1.000000" stroke="none" 
	d="
M739.921997,623.267700 
	C726.402039,623.660522 712.575623,623.725952 698.270813,623.712158 
	C699.100525,623.088196 700.403992,622.083618 701.717346,622.070679 
	C713.432068,621.954529 725.148682,621.992859 736.864258,622.060303 
	C737.783020,622.065613 738.698486,622.633728 739.921997,623.267700 
z"/>
<path fill="#1D3264" opacity="1.000000" stroke="none" 
	d="
M210.923737,623.274719 
	C204.381104,623.668884 197.532730,623.734741 190.236298,623.721069 
	C191.737564,623.093323 193.690704,622.073242 195.635437,622.089050 
	C200.631607,622.129700 205.624039,622.629883 210.923737,623.274719 
z"/>
<path fill="#1D3264" opacity="1.000000" stroke="none" 
	d="
M261.927002,623.290894 
	C253.737061,623.677979 245.242920,623.734314 236.270752,623.709106 
	C236.287384,623.207825 236.787491,622.416687 237.275879,622.423828 
	C245.392410,622.543335 253.507431,622.762878 261.927002,623.290894 
z"/>
<path fill="#1D3264" opacity="1.000000" stroke="none" 
	d="
M836.925537,623.278625 
	C829.737183,623.667542 822.242493,623.728333 814.269165,623.710449 
	C815.088562,623.089722 816.396851,622.060730 817.682800,622.087891 
	C823.998169,622.221375 830.307678,622.635559 836.925537,623.278625 
z"/>
<path fill="#1D3264" opacity="1.000000" stroke="none" 
	d="
M321.931702,623.303955 
	C314.739380,623.691406 307.244080,623.745911 299.270569,623.720459 
	C300.089508,623.094849 301.397491,622.058411 302.681946,622.086792 
	C309.000946,622.226379 315.313751,622.648621 321.931702,623.303955 
z"/>
<path fill="#1D3264" opacity="1.000000" stroke="none" 
	d="
M588.932983,623.303589 
	C583.406189,623.678955 577.575562,623.722717 571.267151,623.683594 
	C576.735962,623.391113 582.682495,623.181580 588.932983,623.303589 
z"/>
<path fill="#1D3264" opacity="1.000000" stroke="none" 
	d="
M387.929199,623.281982 
	C384.022278,623.670044 379.812378,623.731567 375.197815,623.711609 
	C379.070892,623.405212 383.348541,623.180359 387.929199,623.281982 
z"/>
<path fill="#1D3264" opacity="1.000000" stroke="none" 
	d="
M556.923950,623.276489 
	C552.400391,623.655945 547.572815,623.707581 542.269165,623.676636 
	C546.735352,623.378967 551.677673,623.163757 556.923950,623.276489 
z"/>
<path fill="#1D3264" opacity="1.000000" stroke="none" 
	d="
M551.744995,659.933533 
	C548.041504,660.359497 544.022461,660.508423 539.542236,660.696533 
	C543.197205,660.375977 547.313293,660.016174 551.744995,659.933533 
z"/>
<path fill="#1D3264" opacity="1.000000" stroke="none" 
	d="
M567.745239,659.918762 
	C564.658630,660.241211 561.264099,660.289307 557.416748,660.240601 
	C560.455017,659.977356 563.946167,659.810852 567.745239,659.918762 
z"/>
<path fill="#1D3264" opacity="1.000000" stroke="none" 
	d="
M524.937622,623.294800 
	C522.065186,623.675598 518.898254,623.729553 515.262573,623.704102 
	C518.076904,623.405701 521.360046,623.186829 524.937622,623.294800 
z"/>
<path fill="#1D3264" opacity="1.000000" stroke="none" 
	d="
M675.937134,623.276367 
	C673.724304,623.650940 671.220642,623.709473 668.253906,623.685669 
	C670.409363,623.388977 673.027771,623.174683 675.937134,623.276367 
z"/>
<path fill="#1D3264" opacity="1.000000" stroke="none" 
	d="
M350.937622,623.276672 
	C348.724670,623.643066 346.221588,623.693420 343.255676,623.660645 
	C345.411102,623.371826 348.029297,623.166199 350.937622,623.276672 
z"/>
<path fill="#1D3264" opacity="1.000000" stroke="none" 
	d="
M294.949371,623.304077 
	C293.058472,623.683655 290.885651,623.743530 288.252258,623.728455 
	C290.083618,623.430481 292.375549,623.207458 294.949371,623.304077 
z"/>
<path fill="#1D3264" opacity="1.000000" stroke="none" 
	d="
M179.957367,623.304199 
	C178.486023,623.677856 176.741714,623.742004 174.567383,623.742310 
	C175.986359,623.450562 177.835373,623.222656 179.957367,623.304199 
z"/>
<path fill="#1D3264" opacity="1.000000" stroke="none" 
	d="
M852.004517,623.394165 
	C850.741699,623.724182 849.218140,623.731384 847.245178,623.658447 
	C848.445068,623.409302 850.094421,623.240356 852.004517,623.394165 
z"/>
<path fill="#1D3264" opacity="1.000000" stroke="none" 
	d="
M683.959473,623.300903 
	C682.713745,623.658142 681.203857,623.707397 679.246948,623.674255 
	C680.431702,623.392212 682.063477,623.192566 683.959473,623.300903 
z"/>
<path fill="#1D3264" opacity="1.000000" stroke="none" 
	d="
M465.959961,623.290771 
	C465.034424,623.659973 463.856842,623.729858 462.241638,623.724121 
	C463.105316,623.429504 464.406616,623.210510 465.959961,623.290771 
z"/>
<path fill="#1D3264" opacity="1.000000" stroke="none" 
	d="
M403.973511,623.334473 
	C403.040588,623.694092 401.859802,623.747437 400.241119,623.723511 
	C401.110687,623.440186 402.418182,623.234131 403.973511,623.334473 
z"/>
<path fill="#1D3264" opacity="1.000000" stroke="none" 
	d="
M302.021790,660.192627 
	C301.426361,660.390991 300.600220,660.338806 299.376007,660.189209 
	C299.915649,660.041870 300.853363,659.992004 302.021790,660.192627 
z"/>
<path fill="#1D3264" opacity="1.000000" stroke="none" 
	d="
M801.979248,623.336304 
	C801.355591,623.682495 800.506165,623.740356 799.236023,623.721802 
	C799.794678,623.446228 800.774048,623.247070 801.979248,623.336304 
z"/>
<path fill="#1D3264" opacity="1.000000" stroke="none" 
	d="
M589.792908,660.392334 
	C589.481262,660.537231 589.044189,660.439453 588.287292,660.241638 
	C588.534180,660.144287 589.100769,660.146973 589.792908,660.392334 
z"/>
<path fill="#1D3264" opacity="1.000000" stroke="none" 
	d="
M691.996460,623.373169 
	C691.663330,623.670532 691.137878,623.722229 690.222229,623.696289 
	C690.489380,623.455017 691.146729,623.291260 691.996460,623.373169 
z"/>
<path fill="#1D3264" opacity="1.000000" stroke="none" 
	d="
M655.989746,623.333984 
	C655.660339,623.631042 655.135742,623.688660 654.221069,623.667664 
	C654.485474,623.424194 655.140076,623.259338 655.989746,623.333984 
z"/>
<path fill="#1D3264" opacity="1.000000" stroke="none" 
	d="
M391.840546,659.879822 
	C391.562042,660.116455 391.107910,660.170532 390.312164,660.171814 
	C390.535339,659.978455 391.100128,659.837891 391.840546,659.879822 
z"/>
<path fill="#1D3264" opacity="1.000000" stroke="none" 
	d="
M651.016785,623.432617 
	C650.940552,623.636963 650.725586,623.682251 650.188232,623.658569 
	C650.203247,623.484314 650.540588,623.378906 651.016785,623.432617 
z"/>
<path fill="#1D3264" opacity="1.000000" stroke="none" 
	d="
M250.364502,659.294495 
	C250.382217,659.526123 250.064667,659.873230 249.317871,660.233032 
	C249.268845,659.967102 249.649033,659.688599 250.364502,659.294495 
z"/>
<path fill="#2D4270" opacity="1.000000" stroke="none" 
	d="
M574.900757,687.004578 
	C574.901184,694.936951 574.901184,702.369934 574.901184,710.008606 
	C564.347656,710.008606 554.325378,710.008606 543.640869,710.008606 
	C551.211914,698.305298 552.604736,685.503906 553.480347,672.258057 
	C560.528564,672.258057 567.404419,672.258057 574.900330,672.258057 
	C574.900330,676.990845 574.900330,681.748047 574.900757,687.004578 
z"/>
<path fill="#2D4270" opacity="1.000000" stroke="none" 
	d="
M654.563721,762.137207 
	C655.353516,768.292603 655.702454,774.314819 656.073853,780.723755 
	C650.160034,780.723755 644.949951,780.723755 639.942688,780.723755 
	C641.320618,774.839966 642.751221,768.731018 644.326538,762.004028 
	C647.273376,762.004028 650.698120,762.004028 654.563721,762.137207 
z"/>
<path fill="#2D4270" opacity="1.000000" stroke="none" 
	d="
M483.375183,775.107056 
	C480.363495,775.095398 477.772186,775.095398 474.545197,775.095398 
	C476.540375,770.783630 478.246979,767.095581 480.388885,762.466736 
	C482.316284,766.786072 483.876007,770.175720 485.274078,773.630798 
	C485.377197,773.885620 484.315674,774.611694 483.375183,775.107056 
z"/>
<path fill="#2D4270" opacity="1.000000" stroke="none" 
	d="
M587.124390,769.115479 
	C588.188843,767.032288 589.110840,765.286804 590.501343,762.654175 
	C592.506226,767.144836 594.189575,770.915161 596.040771,775.061401 
	C591.880676,775.061401 588.285706,775.061401 584.263794,775.061401 
	C585.277649,772.969543 586.129822,771.211365 587.124390,769.115479 
z"/>
<path fill="#2D4270" opacity="1.000000" stroke="none" 
	d="
M706.411011,766.620178 
	C707.734863,769.493530 708.877502,772.034546 710.183044,774.937866 
	C706.228821,774.937866 702.804688,774.937866 698.809143,774.937866 
	C700.634216,770.991089 702.328308,767.327515 704.278625,763.109863 
	C705.211548,764.629395 705.720642,765.458618 706.411011,766.620178 
z"/>
</svg>